<svg width="14" height="14" viewBox="0 0 14 14" fill="none" xmlns="http://www.w3.org/2000/svg">
<g clip-path="url(#clip0_53_105)">
<path d="M7 4.66667C9.8995 4.66667 12.25 3.88317 12.25 2.91667C12.25 1.95017 9.8995 1.16667 7 1.16667C4.1005 1.16667 1.75 1.95017 1.75 2.91667C1.75 3.88317 4.1005 4.66667 7 4.66667Z" stroke="black" stroke-width="2" stroke-linecap="round" stroke-linejoin="round"/>
<path d="M12.25 7C12.25 7.96833 9.91667 8.75 7 8.75C4.08333 8.75 1.75 7.96833 1.75 7" stroke="black" stroke-width="2" stroke-linecap="round" stroke-linejoin="round"/>
<path d="M1.75 2.91667V11.0833C1.75 12.0517 4.08333 12.8333 7 12.8333C9.91667 12.8333 12.25 12.0517 12.25 11.0833V2.91667" stroke="black" stroke-width="2" stroke-linecap="round" stroke-linejoin="round"/>
</g>
<defs>
<clipPath id="clip0_53_105">
<rect width="14" height="14" fill="white"/>
</clipPath>
</defs>
</svg>
