<svg width="14" height="15" viewBox="0 0 14 15" fill="none" xmlns="http://www.w3.org/2000/svg">
<g clip-path="url(#clip0_185_756)">
<path d="M6.41666 2.83301H2.33332C2.0239 2.83301 1.72716 2.95592 1.50837 3.17472C1.28957 3.39351 1.16666 3.69026 1.16666 3.99967V12.1663C1.16666 12.4758 1.28957 12.7725 1.50837 12.9913C1.72716 13.2101 2.0239 13.333 2.33332 13.333H10.5C10.8094 13.333 11.1062 13.2101 11.3249 12.9913C11.5437 12.7725 11.6667 12.4758 11.6667 12.1663V8.08301" stroke="white" stroke-width="2" stroke-linecap="round" stroke-linejoin="round"/>
<path d="M10.7917 1.95814C11.0237 1.72608 11.3385 1.5957 11.6667 1.5957C11.9948 1.5957 12.3096 1.72608 12.5417 1.95814C12.7737 2.1902 12.9041 2.50495 12.9041 2.83314C12.9041 3.16133 12.7737 3.47608 12.5417 3.70814L6.99999 9.24981L4.66666 9.83314L5.24999 7.49981L10.7917 1.95814Z" stroke="white" stroke-width="2" stroke-linecap="round" stroke-linejoin="round"/>
</g>
<defs>
<clipPath id="clip0_185_756">
<rect width="14" height="14" fill="white" transform="translate(0 0.5)"/>
</clipPath>
</defs>
</svg>
